<?xml version="1.0" encoding="UTF-8"?>
<svg id="_레이어_2" data-name="레이어 2" xmlns="http://www.w3.org/2000/svg" viewBox="0 0 140.55 24.68">
  <defs>
    <style>
      .cls-1 {
        fill: #0657a5;
      }

      .cls-1, .cls-2 {
        stroke-width: 0px;
      }

      .cls-2 {
        fill: #727171;
      }
    </style>
  </defs>
  <g id="_레이어_1-2" data-name="레이어 1">
    <g>
      <g>
        <path class="cls-1" d="m9.5,12.1c0-.46-.11-.85-.32-1.16s-.59-.61-1.15-.87c-.55-.26-1.33-.52-2.35-.79-.79-.21-1.51-.44-2.14-.7-.64-.26-1.18-.56-1.64-.9-.46-.34-.8-.73-1.05-1.17-.24-.44-.36-.94-.36-1.5,0-.76.23-1.43.68-2.03.45-.59,1.09-1.06,1.9-1.4.81-.34,1.77-.51,2.86-.51,1.21,0,2.24.21,3.08.62.84.41,1.49.96,1.93,1.62.44.67.66,1.38.66,2.14h-2.15c0-.54-.13-1.03-.38-1.45s-.64-.76-1.16-1c-.52-.24-1.18-.36-1.98-.36-.75,0-1.37.1-1.86.31-.49.21-.85.48-1.09.84-.24.35-.35.75-.35,1.21,0,.41.13.77.38,1.08.26.32.66.6,1.21.85.55.25,1.26.49,2.14.72,1.21.3,2.21.66,2.98,1.07.78.4,1.35.88,1.72,1.43.37.55.56,1.2.56,1.95s-.23,1.47-.69,2.05c-.46.58-1.11,1.04-1.95,1.35-.84.32-1.82.48-2.95.48-.74,0-1.47-.09-2.19-.28-.72-.19-1.37-.46-1.95-.84-.58-.37-1.05-.83-1.4-1.38-.35-.55-.52-1.18-.52-1.91h2.14c0,.5.11.93.32,1.29.21.36.5.65.87.89.37.23.79.4,1.26.51.47.11.96.17,1.47.17.74,0,1.37-.09,1.88-.28.51-.19.9-.46,1.17-.8.27-.34.4-.75.4-1.22Z"/>
        <path class="cls-1" d="m13.7,15.76h-1.25V7.3h1.25v8.46Zm1.76-4.51l-2.18,2.04-.21-1.18,1.64-1.64,3.13-3.16h1.5l-3.89,3.94Zm-.78.39l.75-.89,4.2,5.01h-1.49l-3.46-4.12Z"/>
        <path class="cls-1" d="m22.91,11.55l2.43-4.25h1.41l-3.22,5.3v3.16h-1.25v-3.16l-3.22-5.3h1.43l2.42,4.25Z"/>
        <path class="cls-1" d="m30.21,15.76h-2.14V1.26h2.14v14.5Zm-1.14,0l.02-1.55h3.33c1.14,0,2.09-.22,2.85-.65.76-.43,1.34-1.05,1.72-1.83.39-.79.58-1.71.58-2.77v-.9c0-1.11-.19-2.05-.58-2.83-.39-.78-.95-1.37-1.69-1.78-.74-.41-1.64-.62-2.7-.62h-3.6v-1.56h3.6c1.41,0,2.64.28,3.71.83,1.06.55,1.89,1.34,2.48,2.36.6,1.02.89,2.23.89,3.62v.88c0,1.4-.3,2.61-.89,3.62-.59,1.02-1.43,1.8-2.52,2.36-1.09.55-2.37.83-3.85.83h-3.35Z"/>
        <path class="cls-1" d="m47.56,7.3v5.72c0,.63-.16,1.16-.47,1.59-.31.42-.73.74-1.25.95-.52.21-1.08.32-1.68.32s-1.21-.11-1.72-.32c-.51-.21-.92-.53-1.21-.95-.3-.42-.45-.95-.45-1.59v-5.72h1.23v5.72c0,.44.09.81.27,1.09.18.29.43.5.75.64.32.14.7.21,1.12.21s.81-.07,1.13-.21c.32-.14.57-.36.75-.64.18-.29.27-.65.27-1.09v-5.72h1.25Z"/>
        <path class="cls-1" d="m55.73,13.08c-.06.53-.23,1.01-.51,1.43-.27.42-.66.76-1.16,1-.5.24-1.13.37-1.88.37s-1.37-.16-1.92-.48c-.55-.32-.97-.78-1.28-1.37-.3-.59-.46-1.28-.46-2.06v-.85c0-.79.15-1.48.46-2.07.31-.59.74-1.04,1.31-1.37.57-.33,1.23-.49,2-.49.71,0,1.3.12,1.79.36.49.24.87.57,1.14,1,.27.43.44.92.5,1.48h-1.25c-.09-.59-.3-1.06-.62-1.4-.32-.34-.85-.51-1.56-.51-.55,0-1.02.12-1.39.37-.37.25-.65.6-.84,1.05-.19.45-.29.97-.29,1.57v.87c0,.55.08,1.06.26,1.51.17.46.43.82.79,1.09.35.27.81.41,1.36.41s.95-.08,1.26-.23c.31-.15.55-.37.71-.65.16-.28.28-.62.34-1.02h1.25Z"/>
        <path class="cls-1" d="m57.99,15.76h-1.25V7.3h1.25v8.46Zm1.76-4.51l-2.18,2.04-.21-1.18,1.64-1.64,3.13-3.16h1.5l-3.89,3.94Zm-.78.39l.75-.89,4.2,5.01h-1.49l-3.46-4.12Z"/>
        <path class="cls-1" d="m68.45,15.76h-3.72V.22h3.72v15.54Zm-2.11,0l.02-2.7h3.69c.9,0,1.67-.18,2.28-.54.62-.36,1.08-.9,1.4-1.6.31-.7.47-1.57.47-2.59v-.68c0-1.03-.16-1.9-.47-2.59-.31-.7-.78-1.22-1.39-1.58s-1.37-.53-2.27-.53h-3.81V.22h3.81c1.55,0,2.92.31,4.1.94,1.18.63,2.11,1.5,2.78,2.61.67,1.11,1,2.41,1,3.89v.66c0,1.48-.34,2.78-1,3.89-.67,1.12-1.59,1.99-2.78,2.61-1.18.62-2.56.93-4.12.93h-3.72Z"/>
        <path class="cls-1" d="m82.94,15.76h-3.72V.22h3.72v15.54Zm7.87-12.83h-9.06V.22h9.06v2.71Zm-1.17,6.15h-7.89v-2.61h7.89v2.61Zm1.18,6.68h-9.07v-2.7h9.07v2.7Z"/>
        <path class="cls-1" d="m100.48,11.66c0-.35-.08-.65-.25-.91-.17-.26-.48-.5-.95-.73-.47-.23-1.16-.48-2.07-.74-.77-.23-1.5-.49-2.2-.77s-1.31-.62-1.85-1.01c-.54-.38-.96-.83-1.26-1.34-.31-.51-.46-1.11-.46-1.79,0-.88.27-1.64.83-2.29.55-.65,1.31-1.16,2.27-1.52.96-.36,2.07-.54,3.31-.54s2.39.2,3.34.61c.95.41,1.69.97,2.21,1.69.52.72.78,1.56.78,2.5h-3.69c0-.42-.1-.79-.3-1.12-.2-.32-.49-.58-.89-.76-.4-.18-.9-.27-1.52-.27s-1.08.08-1.47.23c-.39.16-.69.36-.88.62-.19.26-.29.54-.29.86s.13.63.39.88c.26.25.64.48,1.13.69.5.21,1.1.41,1.8.61,1.25.34,2.3.74,3.15,1.21.85.46,1.49,1.01,1.92,1.64.43.63.64,1.37.64,2.24,0,.91-.26,1.69-.77,2.34-.52.65-1.24,1.14-2.18,1.48-.94.34-2.04.51-3.3.51-.87,0-1.71-.1-2.54-.3-.83-.2-1.58-.52-2.25-.94-.67-.42-1.21-.96-1.61-1.61-.4-.65-.6-1.42-.6-2.3h3.72c0,.46.08.85.23,1.17.15.32.37.57.66.77.29.2.63.34,1.04.43.41.09.86.13,1.36.13.59,0,1.07-.07,1.45-.22s.65-.34.83-.6c.18-.25.27-.54.27-.85Z"/>
        <path class="cls-1" d="m109.24,15.76h-3.71V.22h3.71v15.54Z"/>
        <path class="cls-1" d="m124.93,13.8c-.28.29-.69.61-1.26.94-.56.34-1.29.63-2.17.87-.88.24-1.96.36-3.22.36-1.49,0-2.79-.29-3.92-.88-1.13-.59-2-1.44-2.63-2.57-.62-1.12-.94-2.49-.94-4.09v-.89c0-1.61.3-2.97.9-4.1.6-1.12,1.45-1.98,2.53-2.57,1.09-.59,2.35-.89,3.8-.89,1.52,0,2.76.22,3.73.67.97.44,1.71,1.06,2.21,1.84.51.78.82,1.68.94,2.7h-3.6c-.08-.52-.24-.97-.48-1.34-.24-.37-.58-.66-1.01-.86-.43-.2-1-.3-1.69-.3-.76,0-1.41.18-1.95.54-.54.36-.94.9-1.22,1.62-.28.71-.42,1.61-.42,2.67v.91c0,1.06.15,1.95.45,2.67.3.72.74,1.26,1.33,1.62.59.36,1.31.54,2.18.54.54,0,.98-.04,1.33-.12s.64-.17.86-.28c.22-.11.39-.22.51-.32v-2.58h-3.12v-2.44h6.83v6.26Z"/>
        <path class="cls-1" d="m140.55,15.76h-3.71l-6.67-10v10h-3.7V.22h3.7l6.68,10.01V.22h3.69v15.54Z"/>
      </g>
      <g>
        <path class="cls-2" d="m1.44,24.6h-.53l2.27-5.44h.37l-.03.33-2.08,5.11Zm3.6-1.52H1.85v-.39h3.19v.39Zm-1.71-3.59l-.03-.33h.36l2.28,5.44h-.53l-2.08-5.11Z"/>
        <path class="cls-2" d="m13.23,23.96c-.07.09-.19.19-.36.3-.17.11-.39.21-.68.29-.28.08-.64.12-1.06.12-.47,0-.89-.1-1.25-.3s-.65-.49-.85-.86c-.21-.37-.31-.81-.31-1.32v-.66c0-.5.09-.93.28-1.3.19-.37.46-.65.81-.85s.76-.3,1.24-.3c.45,0,.82.07,1.13.21.3.14.54.33.72.57.17.24.28.52.32.82h-.51c-.04-.22-.12-.42-.24-.6-.12-.18-.3-.33-.53-.44-.23-.11-.53-.17-.89-.17-.39,0-.72.08-.99.26s-.48.41-.62.71c-.14.31-.21.66-.21,1.07v.67c0,.42.08.79.24,1.1.16.31.38.56.67.73.29.17.62.26,1,.26.3,0,.56-.03.78-.08.21-.05.39-.12.52-.19.13-.07.23-.14.29-.2v-1.41h-1.62v-.39h2.12v1.94Z"/>
        <path class="cls-2" d="m15.19,24.6h-.51v-5.44h.51v5.44Zm3.21-5.05h-3.36v-.39h3.36v.39Zm-.4,2.44h-2.96v-.39h2.96v.39Zm.42,2.61h-3.38v-.39h3.38v.39Z"/>
        <path class="cls-2" d="m23.97,24.6h-.51l-3.46-4.65v4.65h-.51v-5.44h.51l3.47,4.65v-4.65h.5v5.44Z"/>
        <path class="cls-2" d="m26.01,24.6h-.51v-5.44h.51v5.44Zm3.21-5.05h-3.36v-.39h3.36v.39Zm-.4,2.44h-2.96v-.39h2.96v.39Zm.42,2.61h-3.38v-.39h3.38v.39Z"/>
        <path class="cls-2" d="m32.26,19.17c.42,0,.78.06,1.08.18.31.12.54.3.71.54.17.24.25.53.25.88,0,.26-.06.49-.18.7-.12.21-.28.38-.49.52-.21.14-.45.24-.73.29l-.18.06h-2.09v-.39s1.73,0,1.73,0c.32,0,.58-.06.79-.17.21-.11.37-.26.47-.44.11-.18.16-.37.16-.58,0-.37-.13-.66-.39-.88-.26-.22-.64-.33-1.14-.33h-1.45v5.05h-.51v-5.44h1.95Zm.2,3.01h.54s1.55,2.38,1.55,2.38v.05h-.54l-1.55-2.43Z"/>
        <path class="cls-2" d="m35.58,24.6h-.53l2.27-5.44h.37l-.03.33-2.08,5.11Zm3.6-1.52h-3.19v-.39h3.19v.39Zm-1.71-3.59l-.03-.33h.36l2.28,5.44h-.53l-2.09-5.11Z"/>
        <path class="cls-2" d="m41.48,24.6h-.51v-5.44h.51v5.44Zm2.97,0h-3.12v-.39h3.12v.39Z"/>
        <path class="cls-2" d="m47.39,24.6h-.53l2.27-5.44h.37l-.03.33-2.08,5.11Zm3.6-1.52h-3.19v-.39h3.19v.39Zm-1.71-3.59l-.03-.33h.36l2.28,5.44h-.53l-2.09-5.11Z"/>
        <path class="cls-2" d="m53.29,24.6h-.51v-5.44h.51v5.44Zm-.23,0v-.39h1.36c.43,0,.8-.09,1.12-.26s.56-.42.73-.73c.17-.31.26-.67.26-1.09v-.51c0-.42-.09-.79-.26-1.09-.17-.31-.41-.55-.72-.72-.31-.17-.67-.26-1.08-.26h-1.43v-.39h1.43c.5,0,.94.1,1.33.31.39.2.69.49.91.86.22.37.33.8.33,1.3v.5c0,.5-.11.93-.33,1.3-.22.37-.52.66-.92.86-.39.2-.84.31-1.36.31h-1.36Z"/>
        <path class="cls-2" d="m60.13,23.93l.21.68h-.41l-2.23-5.44h.55l1.89,4.76Zm1.97-4.76h.55l-2.24,5.44h-.41l.2-.68,1.9-4.76Z"/>
        <path class="cls-2" d="m64.05,24.6h-.51v-5.44h.51v5.44Zm3.21-5.05h-3.36v-.39h3.36v.39Zm-.4,2.44h-2.96v-.39h2.96v.39Zm.42,2.61h-3.38v-.39h3.38v.39Z"/>
        <path class="cls-2" d="m70.3,19.17c.42,0,.78.06,1.08.18.3.12.54.3.71.54.17.24.25.53.25.88,0,.26-.06.49-.18.7-.12.21-.28.38-.49.52-.21.14-.46.24-.73.29l-.18.06h-2.09v-.39s1.74,0,1.74,0c.32,0,.58-.06.79-.17.21-.11.37-.26.47-.44.11-.18.16-.37.16-.58,0-.37-.13-.66-.39-.88-.26-.22-.64-.33-1.14-.33h-1.45v5.05h-.51v-5.44h1.95Zm.2,3.01h.55s1.55,2.38,1.55,2.38v.05h-.54l-1.55-2.43Z"/>
        <path class="cls-2" d="m77.53,19.56h-4.62v-.39h4.62v.39Zm-2.06,5.05h-.5v-5.44h.5v5.44Z"/>
        <path class="cls-2" d="m79.13,24.6h-.51v-5.44h.51v5.44Z"/>
        <path class="cls-2" d="m84.16,23.27c0-.2-.05-.37-.15-.52-.1-.14-.27-.27-.51-.38-.24-.11-.57-.22-.98-.33-.3-.08-.58-.16-.82-.25-.24-.09-.45-.2-.62-.32-.17-.12-.3-.26-.39-.42-.09-.16-.14-.35-.14-.56,0-.28.09-.53.26-.74.17-.21.41-.37.71-.49.3-.12.65-.18,1.05-.18.42,0,.79.07,1.1.22.31.14.55.34.71.58.17.25.25.52.25.82h-.51c0-.24-.06-.45-.18-.63-.12-.19-.3-.33-.53-.44-.23-.11-.51-.16-.84-.16s-.61.05-.83.14-.39.21-.51.36c-.11.15-.17.32-.17.5,0,.17.05.33.15.46.1.14.27.26.5.38.23.11.55.22.95.32.43.1.79.22,1.09.36.3.14.52.31.68.51.16.2.23.45.23.74s-.09.55-.27.76c-.18.21-.42.38-.73.49-.31.11-.67.17-1.07.17-.27,0-.53-.03-.8-.09-.26-.06-.51-.16-.72-.29-.22-.13-.39-.3-.52-.51-.13-.21-.2-.45-.2-.74h.51c0,.23.05.42.15.58.1.16.24.29.41.38.17.1.36.17.56.21.2.04.41.07.62.07.32,0,.59-.04.82-.13.23-.09.41-.21.54-.36s.19-.33.19-.54Z"/>
        <path class="cls-2" d="m86.39,24.6h-.51v-5.44h.51v5.44Z"/>
        <path class="cls-2" d="m92.5,24.6h-.51l-3.46-4.65v4.65h-.51v-5.44h.51l3.46,4.65v-4.65h.5v5.44Z"/>
        <path class="cls-2" d="m98.37,23.96c-.07.09-.19.19-.36.3-.17.11-.39.21-.68.29-.28.08-.64.12-1.06.12-.47,0-.89-.1-1.25-.3-.36-.2-.65-.49-.85-.86-.21-.37-.31-.81-.31-1.32v-.66c0-.5.09-.93.28-1.3.19-.37.46-.65.81-.85.35-.2.76-.3,1.24-.3.45,0,.82.07,1.13.21.31.14.55.33.72.57.17.24.28.52.32.82h-.51c-.04-.22-.12-.42-.24-.6-.12-.18-.3-.33-.53-.44-.23-.11-.53-.17-.89-.17-.39,0-.72.08-.99.26-.27.17-.48.41-.62.71-.14.31-.21.66-.21,1.07v.67c0,.42.08.79.24,1.1.16.31.38.56.66.73.28.17.62.26,1,.26.31,0,.57-.03.78-.08.21-.05.39-.12.52-.19.13-.07.23-.14.29-.2v-1.41h-1.62v-.39h2.12v1.94Z"/>
        <path class="cls-2" d="m106.14,22.91c-.04.37-.15.68-.33.95-.18.27-.43.47-.74.61-.32.14-.7.21-1.14.21s-.85-.1-1.19-.31c-.34-.2-.6-.49-.79-.86-.19-.37-.28-.8-.28-1.29v-.68c0-.49.09-.92.28-1.29.19-.37.45-.66.8-.86.34-.2.75-.31,1.22-.31.43,0,.8.07,1.11.21.31.14.55.34.74.61.18.27.29.58.33.96h-.51c-.06-.44-.22-.78-.49-1.02-.27-.24-.66-.36-1.18-.36-.37,0-.69.08-.96.26-.27.17-.47.41-.62.72-.14.31-.22.67-.22,1.08v.69c0,.4.07.75.21,1.06s.34.56.6.73c.26.18.58.27.95.27s.65-.05.89-.16c.24-.1.42-.26.55-.46.13-.2.22-.46.26-.76h.51Z"/>
        <path class="cls-2" d="m111.82,22.17c0,.51-.1.95-.29,1.32s-.46.67-.81.87c-.35.21-.76.31-1.24.31s-.87-.1-1.23-.31c-.35-.21-.63-.5-.82-.87-.2-.38-.3-.82-.3-1.32v-.58c0-.51.1-.95.29-1.32.2-.38.47-.66.82-.87.35-.21.76-.31,1.23-.31s.89.1,1.24.31c.35.21.62.5.82.87s.29.82.29,1.32v.58Zm-.5-.59c0-.43-.07-.8-.22-1.11s-.36-.55-.63-.72c-.27-.17-.61-.26-.99-.26s-.7.09-.98.26c-.27.17-.48.41-.63.72-.15.31-.22.68-.22,1.11v.59c0,.43.08.8.22,1.12.15.31.36.56.64.73.28.17.6.26.98.26s.72-.09,1-.26c.27-.17.48-.42.62-.73.14-.31.21-.69.21-1.12v-.59Z"/>
        <path class="cls-2" d="m113.56,19.17l.05,3.06v2.38h-.5v-5.44h.45Zm.22,0l2.22,4.8,2.23-4.8h.51l-2.54,5.44h-.39l-2.54-5.44h.51Zm5.12,0v5.44h-.51v-2.38l.06-3.06h.45Z"/>
        <path class="cls-2" d="m120.76,22.39v-.39h1.72c.36,0,.65-.05.87-.16.22-.11.39-.25.49-.43.1-.18.16-.39.16-.61s-.05-.43-.16-.61-.27-.34-.49-.45c-.22-.11-.51-.17-.87-.17h-1.54v5.05h-.51v-5.44h2.05c.44,0,.81.07,1.11.21.3.14.53.33.68.57.15.24.23.53.23.85s-.08.62-.23.86c-.15.24-.38.42-.68.55-.3.13-.67.19-1.11.19h-1.72Z"/>
        <path class="cls-2" d="m124.88,24.6h-.53l2.27-5.44h.37l-.03.33-2.08,5.11Zm3.6-1.52h-3.19v-.39h3.19v.39Zm-1.71-3.59l-.03-.33h.36l2.28,5.44h-.53l-2.08-5.11Z"/>
        <path class="cls-2" d="m134.75,24.6h-.51l-3.46-4.65v4.65h-.51v-5.44h.51l3.47,4.65v-4.65h.5v5.44Z"/>
        <path class="cls-2" d="m138.04,22.13l1.84-2.96h.59l-2.17,3.39v2.05h-.51v-2.05l-2.17-3.39h.6l1.82,2.96Z"/>
      </g>
    </g>
  </g>
</svg>